<svg width="128" height="26" viewBox="0 0 128 26" fill="none" xmlns="http://www.w3.org/2000/svg">
<g clip-path="url(#clip0_36_173748)">
<path d="M31.5553 19.5438C31.4215 19.5438 31.2942 19.5275 31.1735 19.4916C31.0495 19.4557 30.9418 19.3969 30.8505 19.3154C30.759 19.2338 30.6938 19.1261 30.6546 18.9923H30.8569C30.8994 19.087 30.9548 19.1653 31.0299 19.2207C31.1049 19.2762 31.1865 19.3187 31.2812 19.3414C31.3725 19.3676 31.4638 19.3806 31.5552 19.3806C31.6564 19.3806 31.7542 19.3643 31.8489 19.3317C31.9435 19.3023 32.0185 19.2534 32.0772 19.1881C32.136 19.1228 32.1654 19.038 32.1654 18.9304C32.1654 18.8455 32.1491 18.7771 32.1165 18.7248C32.0805 18.6726 32.0349 18.6301 31.9795 18.5975C31.9207 18.5682 31.8522 18.5421 31.7771 18.5192C31.7217 18.5029 31.6629 18.4867 31.6042 18.4703C31.5455 18.4572 31.49 18.4442 31.4345 18.4279C31.379 18.4116 31.3236 18.3952 31.2746 18.3789C31.2061 18.3594 31.1409 18.3365 31.0756 18.3072C31.0071 18.2778 30.9483 18.2418 30.8994 18.1995C30.8473 18.1571 30.8048 18.1016 30.7755 18.0396C30.7428 17.9776 30.7266 17.8993 30.7266 17.8079C30.7266 17.7132 30.7397 17.6318 30.769 17.5632C30.7984 17.4947 30.8375 17.4359 30.8897 17.387C30.942 17.3382 31.0007 17.2989 31.0692 17.2695C31.1377 17.2402 31.2095 17.2206 31.2878 17.2043C31.3628 17.1912 31.4411 17.1846 31.5227 17.1846C31.6467 17.1846 31.7642 17.201 31.8719 17.2369C31.9796 17.2728 32.0709 17.3283 32.1459 17.4065C32.221 17.4848 32.2699 17.5892 32.2895 17.7231H32.1003C32.0774 17.6284 32.0383 17.5566 31.9796 17.5012C31.9175 17.4458 31.849 17.4065 31.7674 17.3837C31.6859 17.3609 31.6043 17.3478 31.5194 17.3478C31.451 17.3478 31.3824 17.3544 31.3139 17.3674C31.2454 17.3837 31.1801 17.4065 31.1213 17.4392C31.0626 17.4718 31.0137 17.5142 30.9778 17.5698C30.9419 17.6252 30.9223 17.6969 30.9223 17.7818C30.9223 17.8666 30.942 17.9351 30.9778 17.9906C31.0137 18.0461 31.0594 18.0885 31.1181 18.1212C31.1736 18.1538 31.2388 18.1831 31.3107 18.206C31.4054 18.2354 31.5064 18.2614 31.6076 18.2843C31.7087 18.3071 31.8066 18.3365 31.8979 18.3658C31.9633 18.3855 32.0252 18.4115 32.0806 18.4409C32.1361 18.4735 32.185 18.5127 32.2275 18.5551C32.2699 18.5975 32.3025 18.6464 32.3253 18.7019C32.3482 18.7573 32.3613 18.8227 32.3613 18.8911C32.3613 19.0119 32.3385 19.113 32.296 19.1946C32.2503 19.2762 32.1883 19.3447 32.1133 19.3969C32.0382 19.4491 31.9502 19.485 31.8555 19.5079C31.7609 19.534 31.6597 19.5438 31.5553 19.5438H31.5553ZM32.8604 19.5177V17.2108H33.0465V19.5177H32.8604ZM33.6403 19.5177V17.2108H33.8948L35.2849 19.2828V17.2108H35.4709V19.5177H35.2262L33.8264 17.4457V19.5177H33.6403H33.6403ZM36.9914 19.5438C36.7565 19.5438 36.5607 19.4916 36.4074 19.3904C36.2507 19.2893 36.1333 19.1523 36.0582 18.976C35.9799 18.8031 35.9408 18.6073 35.9375 18.3887C35.9342 18.219 35.9571 18.0624 35.9995 17.9155C36.0419 17.772 36.1039 17.6447 36.1921 17.5337C36.2801 17.4261 36.3878 17.338 36.5216 17.276C36.6521 17.214 36.8055 17.1846 36.9817 17.1846C37.1252 17.1846 37.2557 17.2042 37.3765 17.2434C37.494 17.2858 37.5951 17.3445 37.6832 17.4261C37.768 17.5077 37.8334 17.6088 37.879 17.7361H37.667C37.631 17.6512 37.5788 17.5795 37.5103 17.5207C37.4418 17.4652 37.3602 17.4195 37.2688 17.3902C37.1775 17.3608 37.0828 17.3478 36.985 17.3478C36.8348 17.3478 36.7044 17.3738 36.5967 17.4294C36.4889 17.4848 36.4009 17.5598 36.3324 17.6545C36.2638 17.7491 36.2116 17.8601 36.1822 17.9807C36.1496 18.1047 36.1333 18.2353 36.1333 18.3756C36.1333 18.5583 36.1628 18.7247 36.2247 18.8781C36.2834 19.0314 36.3781 19.1522 36.5053 19.2435C36.6326 19.3349 36.7924 19.3806 36.9914 19.3806C37.1578 19.3806 37.3014 19.348 37.419 19.2794C37.5331 19.2142 37.6245 19.1196 37.6864 18.9988C37.7484 18.8781 37.7811 18.7345 37.7843 18.5714H36.9914V18.405H37.9573V18.5551C37.9573 18.7508 37.9181 18.9237 37.8397 19.0706C37.7615 19.2207 37.6506 19.3382 37.507 19.4197C37.3602 19.5013 37.1905 19.5436 36.9914 19.5436L36.9914 19.5438ZM38.4239 19.5177V17.2108H38.6099V19.348H39.9314V19.5176H38.4239V19.5177ZM40.2837 19.5177V17.2108H41.7913V17.3804H40.4697V18.2875H41.6574V18.4571H40.4697V19.348H41.7913V19.5176H40.2837V19.5177ZM43.1388 19.5177V17.2108H43.3249V19.5177H43.1388ZM43.9187 19.5177V17.2108H44.1732L45.5633 19.2828V17.2108H45.7493V19.5177H45.5046L44.1048 17.4457V19.5177H43.9187H43.9187ZM46.8782 19.5177V17.3805H46.1049V17.2108H47.8375V17.3805H47.0643V19.5177H46.8782H46.8782ZM48.1933 19.5177V17.2108H49.7008V17.3804H48.3792V18.2875H49.5669V18.4571H48.3792V19.348H49.7008V19.5176H48.1933V19.5177ZM51.094 19.5438C50.859 19.5438 50.6633 19.4916 50.51 19.3904C50.3533 19.2893 50.2359 19.1523 50.1608 18.976C50.0825 18.8031 50.0433 18.6073 50.0401 18.3887C50.0368 18.219 50.0597 18.0624 50.1021 17.9155C50.1445 17.772 50.2065 17.6447 50.2946 17.5337C50.3828 17.4261 50.4904 17.338 50.6241 17.276C50.7547 17.214 50.9081 17.1846 51.0843 17.1846C51.2278 17.1846 51.3584 17.2042 51.4791 17.2434C51.5966 17.2858 51.6977 17.3445 51.7858 17.4261C51.8707 17.5077 51.936 17.6088 51.9816 17.7361H51.7696C51.7336 17.6512 51.6814 17.5795 51.6129 17.5207C51.5444 17.4652 51.4628 17.4195 51.3714 17.3902C51.2801 17.3608 51.1854 17.3478 51.0876 17.3478C50.9374 17.3478 50.8069 17.3738 50.6993 17.4294C50.5915 17.4848 50.5035 17.5598 50.435 17.6545C50.3665 17.7491 50.3142 17.8601 50.2848 17.9807C50.2522 18.1047 50.2359 18.2353 50.2359 18.3756C50.2359 18.5583 50.2653 18.7247 50.3273 18.8781C50.3861 19.0314 50.4807 19.1522 50.6078 19.2435C50.7351 19.3349 50.8951 19.3806 51.094 19.3806C51.2604 19.3806 51.404 19.348 51.5216 19.2794C51.6357 19.2142 51.7271 19.1196 51.789 18.9988C51.8511 18.8781 51.8837 18.7345 51.887 18.5714H51.094V18.405H52.0599V18.5551C52.0599 18.7508 52.0207 18.9237 51.9424 19.0706C51.8641 19.2207 51.7532 19.3382 51.6096 19.4197C51.4628 19.5013 51.2931 19.5436 51.094 19.5436L51.094 19.5438ZM52.5265 19.5177V17.2108H53.3748C53.4955 17.2108 53.6065 17.2238 53.7077 17.2466C53.8055 17.2727 53.8904 17.3119 53.9621 17.3674C54.0307 17.4228 54.0861 17.4946 54.1254 17.5828C54.1612 17.6741 54.1808 17.7851 54.1808 17.9124C54.1808 18.0331 54.158 18.1375 54.1155 18.2256C54.073 18.3138 54.0078 18.3888 53.9263 18.4475C53.8447 18.5062 53.7468 18.5487 53.6326 18.5748L54.1351 19.5178H53.9295L53.4401 18.6074H52.7125V19.5178H52.5265V19.5177ZM52.7125 18.4409H53.2835C53.3749 18.4409 53.463 18.4344 53.5479 18.4181C53.6327 18.405 53.7077 18.3789 53.7762 18.3398C53.8415 18.3006 53.8937 18.2451 53.9328 18.1734C53.9688 18.1048 53.9883 18.0135 53.9883 17.9025C53.9915 17.7687 53.9655 17.6611 53.91 17.5861C53.8546 17.5109 53.7762 17.4555 53.6816 17.4262C53.5838 17.3968 53.4695 17.3805 53.3423 17.3805H52.7125V18.4409L52.7125 18.4409ZM54.4125 19.5177L55.3033 17.2108H55.5415L56.4388 19.5177H56.2299L56.0277 18.9988H54.8171L54.6181 19.5177H54.4125H54.4125ZM54.8791 18.8325H55.9656L55.424 17.4033L54.8791 18.8325Z" fill="#212124"/>
<path d="M57.1519 19.5178V17.3806H56.3787V17.2109H58.1113V17.3806H57.338V19.5178H57.1519Z" fill="#212124"/>
<path d="M59.3774 19.5439C59.1392 19.5439 58.9403 19.4917 58.7804 19.3905C58.6204 19.2894 58.4997 19.1491 58.4181 18.9696C58.3366 18.7935 58.2974 18.5911 58.2974 18.3659C58.2974 18.1408 58.3398 17.9385 58.4214 17.759C58.503 17.5796 58.6237 17.4393 58.7836 17.3382C58.9435 17.237 59.1392 17.1847 59.3774 17.1847C59.6157 17.1847 59.8147 17.237 59.9746 17.3382C60.1345 17.4426 60.2519 17.5829 60.3335 17.759C60.4151 17.9385 60.4543 18.1409 60.4543 18.3659C60.4543 18.5911 60.4151 18.7902 60.3335 18.9696C60.2519 19.1491 60.1312 19.2894 59.9713 19.3905C59.8114 19.4917 59.6157 19.5439 59.3774 19.5439ZM59.3774 19.3807C59.5765 19.3807 59.7429 19.3351 59.8734 19.2437C60.004 19.1524 60.1019 19.0284 60.1639 18.8749C60.2258 18.7216 60.2585 18.5519 60.2585 18.3659C60.2585 18.2256 60.2422 18.0952 60.2063 17.9712C60.1704 17.8505 60.1149 17.7427 60.0431 17.6481C59.9713 17.5535 59.8799 17.4817 59.769 17.4263C59.658 17.374 59.5276 17.348 59.3774 17.348C59.1784 17.348 59.012 17.3936 58.8814 17.4883C58.7477 17.583 58.6497 17.7037 58.5878 17.857C58.5226 18.0104 58.49 18.18 58.49 18.366C58.49 18.5488 58.5226 18.7184 58.5878 18.8718C58.6531 19.0251 58.751 19.1491 58.8847 19.2405C59.0152 19.3352 59.1783 19.3808 59.3774 19.3808L59.3774 19.3807ZM60.9209 19.5178V17.2108H61.7692C61.8899 17.2108 62.0009 17.2239 62.102 17.2467C62.1999 17.2728 62.2848 17.312 62.3565 17.3675C62.4251 17.4229 62.4805 17.4947 62.5198 17.5829C62.5556 17.6742 62.5752 17.7852 62.5752 17.9124C62.5752 18.0332 62.5524 18.1376 62.5099 18.2256C62.4675 18.3138 62.4022 18.3889 62.3207 18.4475C62.2391 18.5063 62.1412 18.5487 62.027 18.5748L62.5295 19.5178H62.3239L61.8345 18.6074H61.1069V19.5178H60.9209V19.5178ZM61.1069 18.4409H61.6779C61.7693 18.4409 61.8573 18.4344 61.9422 18.4181C62.0271 18.4051 62.1021 18.3789 62.1706 18.3398C62.2359 18.3007 62.2881 18.2451 62.3272 18.1734C62.3632 18.1049 62.3828 18.0136 62.3828 17.9026C62.3859 17.7688 62.3599 17.6611 62.3044 17.5861C62.2489 17.511 62.1706 17.4556 62.076 17.4262C61.9782 17.3968 61.8639 17.3805 61.7366 17.3805H61.1069V18.441L61.1069 18.4409ZM63.9391 19.5178V17.2108H65.4466V17.3805H64.1251V18.3691H65.2638V18.5388H64.1251V19.5177H63.9391V19.5178ZM66.8301 19.5438C66.5919 19.5438 66.3929 19.4916 66.233 19.3905C66.0731 19.2894 65.9524 19.149 65.8708 18.9695C65.7892 18.7934 65.75 18.5911 65.75 18.3659C65.75 18.1408 65.7924 17.9384 65.874 17.759C65.9556 17.5796 66.0764 17.4393 66.2362 17.3381C66.3961 17.2369 66.5919 17.1847 66.8301 17.1847C67.0683 17.1847 67.2673 17.2369 67.4272 17.3381C67.5871 17.4425 67.7046 17.5828 67.7862 17.759C67.8677 17.9385 67.9069 18.1408 67.9069 18.3659C67.9069 18.5911 67.8677 18.7901 67.7862 18.9695C67.7046 19.149 67.5839 19.2893 67.424 19.3905C67.264 19.4916 67.0683 19.5438 66.8301 19.5438ZM66.8301 19.3807C67.0292 19.3807 67.1955 19.335 67.3261 19.2436C67.4566 19.1523 67.5545 19.0283 67.6165 18.8749C67.6785 18.7215 67.7111 18.5519 67.7111 18.3659C67.7111 18.2255 67.6948 18.0951 67.6589 17.9711C67.623 17.8504 67.5676 17.7426 67.4957 17.6481C67.4239 17.5535 67.3326 17.4816 67.2216 17.4262C67.1107 17.374 66.9802 17.3479 66.8301 17.3479C66.6311 17.3479 66.4646 17.3936 66.3341 17.4882C66.2003 17.5829 66.1024 17.7036 66.0404 17.857C65.9752 18.0103 65.9426 18.18 65.9426 18.3659C65.9426 18.5487 65.9752 18.7184 66.0404 18.8717C66.1057 19.0251 66.2036 19.1491 66.3373 19.2405C66.4679 19.3351 66.631 19.3808 66.83 19.3808L66.8301 19.3807ZM68.3735 19.5177V17.2108H69.2218C69.3426 17.2108 69.4535 17.2238 69.5547 17.2466C69.6525 17.2727 69.7374 17.3119 69.8092 17.3674C69.8777 17.4228 69.9331 17.4946 69.9724 17.5828C70.0082 17.6741 70.0278 17.7851 70.0278 17.9124C70.0278 18.0331 70.005 18.1375 69.9625 18.2256C69.9201 18.3138 69.8548 18.3888 69.7733 18.4475C69.6917 18.5062 69.5938 18.5487 69.4796 18.5748L69.9821 19.5178H69.7766L69.2871 18.6074H68.5595V19.5178H68.3735V19.5177ZM68.5595 18.4409H69.1305C69.2219 18.4409 69.31 18.4344 69.3948 18.4181C69.4797 18.405 69.5548 18.3789 69.6232 18.3398C69.6885 18.3006 69.7408 18.2451 69.7799 18.1734C69.8158 18.1048 69.8354 18.0135 69.8354 17.9025C69.8385 17.7687 69.8125 17.6611 69.7571 17.5861C69.7015 17.5109 69.6232 17.4555 69.5286 17.4262C69.4308 17.3968 69.3166 17.3805 69.1893 17.3805H68.5596V18.4409L68.5595 18.4409ZM71.9268 19.5177V17.3805H71.1535V17.2108H72.8862V17.3805H72.1129V19.5177H71.9269H71.9268ZM73.2419 19.5177V17.2108H73.4279V18.3039H74.8309V17.2108H75.0169V19.5177H74.8309V18.4703H73.4279V19.5177H73.2419ZM75.6107 19.5177V17.2108H77.1183V17.3804H75.7968V18.2875H76.9844V18.4571H75.7968V19.348H77.1183V19.5176H75.6107V19.5177ZM79.3925 19.5438C79.1543 19.5438 78.9553 19.4916 78.8019 19.3904C78.6453 19.2893 78.5279 19.149 78.4529 18.9695C78.3778 18.7934 78.3386 18.591 78.3386 18.3658C78.3386 18.1407 78.3778 17.9417 78.4561 17.7622C78.5312 17.5861 78.6487 17.4457 78.8085 17.3413C78.9652 17.2368 79.1642 17.1846 79.4024 17.1846C79.5427 17.1846 79.6699 17.2042 79.7875 17.2466C79.9016 17.2891 80.0028 17.3478 80.0843 17.4294C80.1659 17.5109 80.2246 17.6121 80.2638 17.7361H80.0712C80.0191 17.6088 79.9342 17.5109 79.8168 17.4457C79.6961 17.3804 79.5589 17.3478 79.4056 17.3478C79.2033 17.3478 79.0369 17.3935 78.9097 17.4881C78.7792 17.5828 78.6845 17.7035 78.6226 17.8569C78.5605 18.0102 78.5279 18.1766 78.5279 18.3594C78.5279 18.5421 78.5572 18.7118 78.6193 18.8651C78.6812 19.0218 78.7759 19.1457 78.9064 19.2404C79.0336 19.3351 79.2 19.3807 79.3991 19.3807C79.5002 19.3807 79.5949 19.3677 79.6895 19.3383C79.7841 19.3089 79.8657 19.2665 79.9375 19.2078C80.0092 19.149 80.0614 19.0772 80.0941 18.9924H80.3061C80.2637 19.1131 80.1952 19.2143 80.1072 19.2958C80.0158 19.3774 79.9081 19.4394 79.7874 19.4818C79.6666 19.5243 79.5328 19.5438 79.3926 19.5438L79.3925 19.5438ZM80.7531 19.5177V17.2108H81.6014C81.7222 17.2108 81.8332 17.2238 81.9343 17.2466C82.0322 17.2727 82.117 17.3119 82.1888 17.3674C82.2574 17.4228 82.3128 17.4946 82.352 17.5828C82.3879 17.6741 82.4074 17.7851 82.4074 17.9124C82.4074 18.0331 82.3847 18.1375 82.3422 18.2256C82.2997 18.3138 82.2345 18.3888 82.153 18.4475C82.0714 18.5062 81.9734 18.5487 81.8593 18.5748L82.3618 19.5178H82.1562L81.6668 18.6074H80.9392V19.5178H80.7531V19.5177ZM80.9392 18.4409H81.5102C81.6015 18.4409 81.6896 18.4344 81.7745 18.4181C81.8594 18.405 81.9344 18.3789 82.0028 18.3398C82.0682 18.3006 82.1204 18.2451 82.1595 18.1734C82.1954 18.1048 82.215 18.0135 82.215 17.9025C82.2182 17.7687 82.1921 17.6611 82.1367 17.5861C82.0812 17.5109 82.0028 17.4555 81.9083 17.4262C81.8104 17.3968 81.6962 17.3805 81.5689 17.3805H80.9392V18.4409L80.9392 18.4409ZM82.8904 19.5177V17.2108H84.3979V17.3804H83.0765V18.2875H84.2641V18.4571H83.0765V19.348H84.3979V19.5176H82.8904V19.5177ZM84.6133 19.5177L85.5041 17.2108H85.7423L86.6396 19.5177H86.4308L86.2284 18.9988H85.0179L84.8189 19.5177H84.6133H84.6133ZM85.0799 18.8325H86.1665L85.6248 17.4033L85.0799 18.8325Z" fill="#212124"/>
<path d="M87.3531 19.5176V17.3804H86.5798V17.2108H88.3124V17.3804H87.5391V19.5176H87.3531H87.3531ZM88.6681 19.5176V17.2107H88.8541V19.5176H88.6681ZM90.4007 19.5437C90.1625 19.5437 89.9636 19.4915 89.8036 19.3904C89.6437 19.2893 89.523 19.1489 89.4415 18.9694C89.3599 18.7933 89.3207 18.591 89.3207 18.3658C89.3207 18.1407 89.3631 17.9383 89.4447 17.7589C89.5263 17.5795 89.647 17.4392 89.8069 17.338C89.9667 17.2368 90.1625 17.1846 90.4007 17.1846C90.639 17.1846 90.838 17.2368 90.9979 17.338C91.1578 17.4424 91.2752 17.5827 91.3569 17.7589C91.4384 17.9384 91.4776 18.1407 91.4776 18.3658C91.4776 18.591 91.4384 18.79 91.3569 18.9694C91.2752 19.1489 91.1546 19.2892 90.9946 19.3904C90.8347 19.4915 90.639 19.5437 90.4007 19.5437ZM90.4007 19.3806C90.5998 19.3806 90.7662 19.3349 90.8967 19.2435C91.0273 19.1522 91.1252 19.0282 91.1872 18.8748C91.2491 18.7214 91.2818 18.5517 91.2818 18.3658C91.2818 18.2254 91.2655 18.095 91.2296 17.971C91.1937 17.8503 91.1382 17.7425 91.0663 17.648C90.9946 17.5533 90.9033 17.4815 90.7923 17.4261C90.6814 17.3739 90.5509 17.3478 90.4007 17.3478C90.2017 17.3478 90.0353 17.3935 89.9047 17.4881C89.771 17.5828 89.6731 17.7035 89.6111 17.8569C89.5459 18.0102 89.5132 18.1799 89.5132 18.3658C89.5132 18.5486 89.5459 18.7183 89.6111 18.8716C89.6764 19.0249 89.7743 19.149 89.908 19.2403C90.0385 19.335 90.2017 19.3807 90.4007 19.3807L90.4007 19.3806ZM91.9442 19.5176V17.2107H92.1987L93.5888 19.2826V17.2107H93.7747V19.5176H93.53L92.1303 17.4456V19.5176H91.9442H91.9442ZM94.9983 19.5176L95.8892 17.2107H96.1273L97.0247 19.5176H96.8159L96.6135 18.9987H95.403L95.204 19.5176H94.9984H94.9983ZM95.465 18.8324H96.5516L96.0099 17.4032L95.465 18.8324ZM97.3673 19.5176V17.2107H97.6217L99.0118 19.2826V17.2107H99.1978V19.5176H98.9532L97.5533 17.4456V19.5176H97.3673H97.3673ZM99.7917 19.5176V17.2107H100.594C100.833 17.2107 101.032 17.2596 101.191 17.3543C101.351 17.4521 101.469 17.586 101.55 17.7588C101.632 17.9318 101.671 18.1341 101.671 18.3657C101.671 18.5942 101.632 18.7932 101.55 18.9662C101.469 19.1391 101.351 19.2729 101.191 19.3708C101.032 19.4687 100.833 19.5176 100.594 19.5176H99.7917ZM99.9776 19.348H100.568C100.774 19.348 100.944 19.3056 101.077 19.224C101.211 19.1424 101.309 19.0249 101.377 18.8781C101.446 18.7313 101.479 18.5584 101.479 18.3658C101.479 18.1765 101.446 18.0068 101.381 17.8568C101.315 17.71 101.217 17.5925 101.087 17.5077C100.957 17.4228 100.79 17.3804 100.591 17.3804H99.9776V19.348L99.9776 19.348ZM103.825 19.5437C103.691 19.5437 103.564 19.5274 103.443 19.4915C103.319 19.4556 103.211 19.3969 103.12 19.3153C103.028 19.2337 102.963 19.1261 102.924 18.9923H103.126C103.169 19.087 103.224 19.1653 103.299 19.2207C103.374 19.2761 103.456 19.3186 103.551 19.3414C103.642 19.3675 103.733 19.3806 103.825 19.3806C103.926 19.3806 104.024 19.3643 104.118 19.3317C104.213 19.3023 104.288 19.2533 104.347 19.188C104.405 19.1228 104.435 19.0379 104.435 18.9303C104.435 18.8455 104.418 18.777 104.386 18.7247C104.35 18.6726 104.304 18.6301 104.249 18.5975C104.19 18.5681 104.122 18.5421 104.047 18.5191C103.991 18.5028 103.932 18.4866 103.874 18.4703C103.815 18.4572 103.759 18.4442 103.704 18.4278C103.648 18.4115 103.593 18.3952 103.544 18.3789C103.476 18.3594 103.41 18.3365 103.345 18.3071C103.276 18.2777 103.218 18.2418 103.169 18.1994C103.117 18.157 103.074 18.1015 103.045 18.0395C103.012 17.9775 102.996 17.8992 102.996 17.8079C102.996 17.7132 103.009 17.6317 103.038 17.5632C103.068 17.4946 103.107 17.4359 103.159 17.387C103.211 17.3381 103.27 17.2988 103.339 17.2695C103.407 17.2401 103.479 17.2206 103.557 17.2042C103.632 17.1912 103.711 17.1846 103.792 17.1846C103.916 17.1846 104.034 17.2009 104.141 17.2368C104.249 17.2727 104.34 17.3282 104.415 17.4065C104.49 17.4848 104.539 17.5892 104.559 17.723H104.37C104.347 17.6284 104.308 17.5565 104.249 17.5011C104.187 17.4457 104.118 17.4065 104.037 17.3837C103.955 17.3608 103.874 17.3478 103.789 17.3478C103.72 17.3478 103.652 17.3543 103.583 17.3674C103.515 17.3837 103.449 17.4065 103.391 17.4392C103.332 17.4718 103.283 17.5142 103.247 17.5697C103.211 17.6251 103.192 17.6969 103.192 17.7817C103.192 17.8665 103.211 17.9351 103.247 17.9905C103.283 18.046 103.329 18.0885 103.388 18.1211C103.443 18.1537 103.508 18.1831 103.58 18.2059C103.675 18.2353 103.776 18.2614 103.877 18.2842C103.978 18.307 104.076 18.3364 104.167 18.3658C104.233 18.3854 104.295 18.4115 104.35 18.4408C104.406 18.4734 104.454 18.5127 104.497 18.5551C104.539 18.5975 104.572 18.6464 104.595 18.7019C104.618 18.7573 104.631 18.8226 104.631 18.8911C104.631 19.0118 104.608 19.113 104.565 19.1946C104.52 19.2761 104.458 19.3447 104.383 19.3969C104.308 19.449 104.22 19.485 104.125 19.5078C104.03 19.5339 103.929 19.5437 103.825 19.5437H103.825ZM106.008 19.5437C105.799 19.5437 105.629 19.5013 105.499 19.4132C105.365 19.3251 105.27 19.2077 105.208 19.0543C105.146 18.9042 105.114 18.7312 105.114 18.5354V17.2107H105.303V18.5256C105.303 18.6855 105.326 18.8291 105.375 18.9563C105.42 19.0869 105.495 19.1913 105.6 19.2663C105.704 19.3413 105.841 19.3805 106.011 19.3805C106.187 19.3805 106.327 19.3413 106.429 19.263C106.53 19.1879 106.605 19.0836 106.65 18.953C106.693 18.8258 106.716 18.6822 106.716 18.5256V17.2106H106.905V18.5353C106.905 18.7312 106.875 18.9042 106.813 19.0542C106.752 19.2076 106.657 19.325 106.523 19.4132C106.389 19.5013 106.22 19.5436 106.008 19.5436L106.008 19.5437ZM107.482 19.5176V17.2107H108.259C108.425 17.2107 108.569 17.2368 108.69 17.289C108.807 17.3445 108.899 17.4261 108.961 17.537C109.023 17.648 109.055 17.7882 109.055 17.9611C109.055 18.1308 109.019 18.2711 108.944 18.3821C108.869 18.4963 108.765 18.5811 108.637 18.6367C108.507 18.6921 108.36 18.7214 108.197 18.7214H107.668V19.5176H107.482V19.5176ZM107.668 18.5551H108.187C108.39 18.5551 108.553 18.5061 108.677 18.4083C108.801 18.3136 108.863 18.1603 108.863 17.9481C108.863 17.7491 108.807 17.6023 108.699 17.5141C108.592 17.4261 108.438 17.3804 108.243 17.3804H107.668V18.5551ZM109.525 19.5176V17.2107H110.302C110.468 17.2107 110.612 17.2368 110.732 17.289C110.85 17.3445 110.941 17.4261 111.003 17.537C111.065 17.648 111.098 17.7882 111.098 17.9611C111.098 18.1308 111.062 18.2711 110.987 18.3821C110.912 18.4963 110.807 18.5811 110.68 18.6367C110.55 18.6921 110.403 18.7214 110.24 18.7214H109.711V19.5176H109.525V19.5176ZM109.711 18.5551H110.23C110.432 18.5551 110.595 18.5061 110.719 18.4083C110.843 18.3136 110.905 18.1603 110.905 17.9481C110.905 17.7491 110.85 17.6023 110.742 17.5141C110.634 17.4261 110.481 17.3804 110.285 17.3804H109.711V18.5551ZM112.52 19.5437C112.282 19.5437 112.083 19.4915 111.923 19.3904C111.763 19.2893 111.643 19.1489 111.561 18.9694C111.48 18.7933 111.44 18.591 111.44 18.3658C111.44 18.1407 111.483 17.9383 111.564 17.7589C111.646 17.5795 111.767 17.4392 111.927 17.338C112.086 17.2368 112.282 17.1846 112.52 17.1846C112.759 17.1846 112.958 17.2368 113.118 17.338C113.277 17.4424 113.395 17.5827 113.476 17.7589C113.558 17.9384 113.597 18.1407 113.597 18.3658C113.597 18.591 113.558 18.79 113.476 18.9694C113.395 19.1489 113.274 19.2892 113.114 19.3904C112.954 19.4915 112.759 19.5437 112.52 19.5437ZM112.52 19.3806C112.719 19.3806 112.886 19.3349 113.016 19.2435C113.147 19.1522 113.245 19.0282 113.307 18.8748C113.369 18.7214 113.401 18.5517 113.401 18.3658C113.401 18.2254 113.385 18.095 113.349 17.971C113.313 17.8503 113.258 17.7425 113.186 17.648C113.114 17.5533 113.023 17.4815 112.912 17.4261C112.801 17.3739 112.671 17.3478 112.52 17.3478C112.321 17.3478 112.155 17.3935 112.024 17.4881C111.891 17.5828 111.793 17.7035 111.731 17.8569C111.665 18.0102 111.633 18.1799 111.633 18.3658C111.633 18.5486 111.665 18.7183 111.731 18.8716C111.796 19.0249 111.894 19.149 112.028 19.2403C112.158 19.335 112.321 19.3807 112.52 19.3807L112.52 19.3806ZM114.064 19.5176V17.2107H114.912C115.033 17.2107 115.144 17.2237 115.245 17.2465C115.343 17.2726 115.428 17.3118 115.499 17.3673C115.568 17.4227 115.623 17.4945 115.663 17.5827C115.699 17.674 115.718 17.785 115.718 17.9123C115.718 18.033 115.695 18.1374 115.653 18.2255C115.61 18.3137 115.545 18.3887 115.464 18.4474C115.382 18.5061 115.284 18.5486 115.17 18.5747L115.672 19.5176H115.467L114.977 18.6073H114.25V19.5176H114.064V19.5176ZM114.25 18.4408H114.821C114.912 18.4408 115 18.4343 115.085 18.418C115.17 18.4049 115.245 18.3788 115.314 18.3397C115.379 18.3005 115.431 18.245 115.47 18.1733C115.506 18.1047 115.526 18.0134 115.526 17.9024C115.529 17.7686 115.503 17.661 115.447 17.586C115.392 17.5108 115.314 17.4554 115.219 17.4261C115.121 17.3967 115.007 17.3804 114.88 17.3804H114.25V18.4408L114.25 18.4408ZM116.736 19.5176V17.3804H115.963V17.2107H117.695V17.3804H116.922V19.5176H116.736H116.736Z" fill="#212124"/>
<path d="M31.7052 23.5687C31.4671 23.5687 31.2681 23.5165 31.1082 23.4153C30.9483 23.3142 30.8276 23.1739 30.7459 22.9943C30.6644 22.8182 30.6253 22.6159 30.6253 22.3907C30.6253 22.1656 30.6677 21.9633 30.7492 21.7838C30.8308 21.6044 30.9515 21.4641 31.1115 21.363C31.2713 21.2618 31.4671 21.2095 31.7052 21.2095C31.9435 21.2095 32.1425 21.2618 32.3024 21.363C32.4624 21.4673 32.5798 21.6076 32.6614 21.7838C32.7429 21.9633 32.7821 22.1657 32.7821 22.3907C32.7821 22.6159 32.7429 22.8149 32.6614 22.9943C32.5798 23.1739 32.459 23.3142 32.2992 23.4153C32.1393 23.5165 31.9435 23.5687 31.7052 23.5687ZM31.7052 23.4055C31.9044 23.4055 32.0708 23.3598 32.2012 23.2685C32.3318 23.1771 32.4297 23.0531 32.4917 22.8997C32.5537 22.7463 32.5864 22.5767 32.5864 22.3907C32.5864 22.2504 32.57 22.1199 32.5341 21.9959C32.4982 21.8753 32.4427 21.7675 32.3709 21.6729C32.2991 21.5783 32.2077 21.5064 32.0969 21.451C31.9859 21.3988 31.8554 21.3728 31.7052 21.3728C31.5063 21.3728 31.3399 21.4184 31.2093 21.5131C31.0755 21.6077 30.9776 21.7284 30.9156 21.8818C30.8504 22.0351 30.8178 22.2048 30.8178 22.3908C30.8178 22.5736 30.8504 22.7432 30.9156 22.8966C30.9809 23.0499 31.0788 23.1739 31.2125 23.2653C31.3431 23.3599 31.5062 23.4056 31.7052 23.4056L31.7052 23.4055ZM33.2487 23.5425V21.2356H34.7563V21.4053H33.4348V22.3939H34.5735V22.5635H33.4348V23.5425H33.2487V23.5425ZM36.8706 23.5686C36.7368 23.5686 36.6095 23.5522 36.4888 23.5164C36.3648 23.4805 36.2572 23.4218 36.1658 23.3402C36.0744 23.2586 36.0092 23.151 35.97 23.0172H36.1723C36.2147 23.1119 36.2702 23.1901 36.3452 23.2455C36.4203 23.301 36.5019 23.3435 36.5965 23.3663C36.6879 23.3924 36.7792 23.4055 36.8705 23.4055C36.9717 23.4055 37.0695 23.3892 37.1642 23.3565C37.2589 23.3272 37.3338 23.2782 37.3926 23.2129C37.4514 23.1476 37.4808 23.0628 37.4808 22.9552C37.4808 22.8703 37.4645 22.8018 37.4318 22.7496C37.3959 22.6975 37.3502 22.655 37.2948 22.6224C37.2361 22.593 37.1675 22.5669 37.0925 22.544C37.037 22.5277 36.9783 22.5115 36.9195 22.4952C36.8608 22.4821 36.8053 22.4691 36.7499 22.4527C36.6944 22.4364 36.6389 22.4201 36.59 22.4038C36.5215 22.3842 36.4562 22.3614 36.3909 22.332C36.3224 22.3026 36.2637 22.2667 36.2148 22.2243C36.1626 22.1819 36.1201 22.1264 36.0908 22.0644C36.0582 22.0024 36.0419 21.9241 36.0419 21.8328C36.0419 21.7381 36.055 21.6566 36.0843 21.5881C36.1137 21.5195 36.1528 21.4608 36.2051 21.4119C36.2573 21.363 36.316 21.3238 36.3845 21.2944C36.4531 21.265 36.5248 21.2454 36.6031 21.2291C36.6782 21.216 36.7565 21.2095 36.8381 21.2095C36.9621 21.2095 37.0796 21.2258 37.1873 21.2617C37.2949 21.2976 37.3863 21.3531 37.4613 21.4314C37.5363 21.5096 37.5852 21.6141 37.6049 21.7479H37.4156C37.3928 21.6533 37.3537 21.5814 37.2949 21.526C37.2329 21.4706 37.1644 21.4314 37.0827 21.4086C37.0012 21.3857 36.9196 21.3727 36.8347 21.3727C36.7663 21.3727 36.6978 21.3792 36.6293 21.3923C36.5607 21.4086 36.4954 21.4314 36.4367 21.464C36.3779 21.4966 36.329 21.5391 36.2931 21.5946C36.2573 21.65 36.2377 21.7218 36.2377 21.8066C36.2377 21.8914 36.2573 21.96 36.2931 22.0154C36.329 22.071 36.3747 22.1134 36.4335 22.146C36.4889 22.1786 36.5541 22.208 36.626 22.2308C36.7207 22.2602 36.8217 22.2862 36.923 22.3092C37.024 22.332 37.122 22.3613 37.2133 22.3907C37.2786 22.4103 37.3406 22.4363 37.396 22.4657C37.4515 22.4983 37.5004 22.5375 37.5428 22.5799C37.5852 22.6224 37.6179 22.6713 37.6407 22.7268C37.6636 22.7822 37.6766 22.8475 37.6766 22.916C37.6766 23.0367 37.6538 23.1379 37.6113 23.2194C37.5656 23.301 37.5037 23.3695 37.4286 23.4218C37.3536 23.4739 37.2655 23.5098 37.1709 23.5327C37.0762 23.5588 36.9751 23.5686 36.8706 23.5686H36.8706Z" fill="#212124"/>
<path d="M38.678 23.5425V21.4053H37.9047V21.2356H39.6373V21.4053H38.864V23.5425H38.678Z" fill="#212124"/>
<path d="M39.5784 23.5425L40.4692 21.2356H40.7074L41.6047 23.5425H41.3959L41.1936 23.0236H39.983L39.784 23.5425H39.5785H39.5784ZM40.045 22.8572H41.1316L40.5899 21.4281L40.045 22.8572Z" fill="#212124"/>
<path d="M42.3191 23.5425V21.4053H41.5459V21.2357H43.2785V21.4053H42.5052V23.5425H42.3192H42.3191ZM43.6342 23.5425V21.2356H45.1417V21.4053H43.8202V22.3123H45.0079V22.482H43.8202V23.3728H45.1417V23.5424H43.6342V23.5425ZM46.4893 23.5425V21.2356H46.6753V23.5425H46.4893ZM47.2692 23.5425V21.2356H47.5236L48.9137 23.3076V21.2356H49.0997V23.5425H48.855L47.4552 21.4705V23.5425H47.2692H47.2692ZM49.6936 23.5425V21.2356H51.2011V21.4053H49.8795V22.3939H51.0183V22.5635H49.8795V23.5425H49.6936V23.5425ZM52.5845 23.5686C52.3463 23.5686 52.1474 23.5164 51.9874 23.4153C51.8275 23.3142 51.7068 23.1738 51.6252 22.9943C51.5437 22.8182 51.5045 22.6159 51.5045 22.3907C51.5045 22.1656 51.5469 21.9632 51.6284 21.7837C51.7101 21.6043 51.8308 21.464 51.9907 21.3629C52.1505 21.2617 52.3463 21.2095 52.5845 21.2095C52.8227 21.2095 53.0218 21.2617 53.1817 21.3629C53.3415 21.4673 53.459 21.6076 53.5406 21.7837C53.6222 21.9633 53.6614 22.1656 53.6614 22.3907C53.6614 22.6159 53.6222 22.8148 53.5406 22.9943C53.459 23.1738 53.3383 23.3141 53.1784 23.4153C53.0185 23.5164 52.8227 23.5686 52.5845 23.5686ZM52.5845 23.4055C52.7836 23.4055 52.95 23.3598 53.0805 23.2684C53.211 23.1771 53.3089 23.053 53.371 22.8997C53.4329 22.7463 53.4656 22.5766 53.4656 22.3907C53.4656 22.2503 53.4493 22.1199 53.4134 21.9959C53.3774 21.8752 53.322 21.7674 53.2501 21.6729C53.1784 21.5782 53.087 21.5064 52.9761 21.451C52.8651 21.3988 52.7347 21.3727 52.5845 21.3727C52.3855 21.3727 52.2191 21.4184 52.0885 21.513C51.9548 21.6077 51.8568 21.7284 51.7948 21.8817C51.7296 22.035 51.697 22.2048 51.697 22.3907C51.697 22.5735 51.7296 22.7432 51.7948 22.8965C51.8601 23.0499 51.9581 23.1739 52.0918 23.2652C52.2223 23.3599 52.3855 23.4056 52.5844 23.4056L52.5845 23.4055ZM54.128 23.5425V21.2356H54.9763C55.097 21.2356 55.208 21.2486 55.3091 21.2714C55.407 21.2975 55.4918 21.3367 55.5636 21.3922C55.6322 21.4476 55.6876 21.5194 55.7268 21.6076C55.7627 21.6989 55.7822 21.8099 55.7822 21.9372C55.7822 22.0579 55.7594 22.1623 55.717 22.2504C55.6745 22.3386 55.6093 22.4136 55.5278 22.4723C55.4462 22.531 55.3483 22.5735 55.2341 22.5996L55.7366 23.5425H55.531L55.0416 22.6322H54.3139V23.5425H54.128V23.5425ZM54.3139 22.4656H54.885C54.9763 22.4656 55.0644 22.4592 55.1493 22.4429C55.2341 22.4298 55.3092 22.4037 55.3777 22.3646C55.443 22.3253 55.4952 22.2699 55.5343 22.1982C55.5703 22.1296 55.5898 22.0382 55.5898 21.9273C55.593 21.7935 55.567 21.6859 55.5115 21.6109C55.456 21.5357 55.3777 21.4803 55.283 21.4509C55.1852 21.4216 55.071 21.4053 54.9437 21.4053H54.314V22.4657L54.3139 22.4656ZM56.2652 23.5425V21.2356H56.5393L57.3518 22.6419L58.1512 21.2356H58.4188V23.5425H58.2327V21.4444L57.3942 22.916H57.3028L56.4512 21.4444V23.5425H56.2652H56.2652ZM58.7614 23.5425L59.6522 21.2356H59.8904L60.7877 23.5425H60.5789L60.3766 23.0236H59.166L58.967 23.5425H58.7615H58.7614ZM59.2281 22.8572H60.3146L59.773 21.4281L59.2281 22.8572Z" fill="#212124"/>
<path d="M61.5013 23.5426V21.4054H60.728V21.2357H62.4606V21.4054H61.6873V23.5426H61.5014H61.5013ZM62.8163 23.5426V21.2357H63.0023V23.5426H62.8163ZM64.549 23.5687C64.3108 23.5687 64.1118 23.5165 63.9519 23.4153C63.792 23.3142 63.6712 23.1739 63.5897 22.9943C63.5081 22.8182 63.469 22.6159 63.469 22.3907C63.469 22.1656 63.5114 21.9633 63.5929 21.7838C63.6745 21.6044 63.7952 21.4641 63.9552 21.363C64.1149 21.2618 64.3108 21.2095 64.549 21.2095C64.7872 21.2095 64.9862 21.2618 65.1461 21.363C65.306 21.4673 65.4234 21.6076 65.5051 21.7838C65.5866 21.9633 65.6258 22.1657 65.6258 22.3907C65.6258 22.6159 65.5866 22.8149 65.5051 22.9943C65.4234 23.1739 65.3028 23.3142 65.1428 23.4153C64.983 23.5165 64.7872 23.5687 64.549 23.5687ZM64.549 23.4055C64.7481 23.4055 64.9145 23.3598 65.0449 23.2685C65.1755 23.1771 65.2734 23.0531 65.3354 22.8997C65.3973 22.7463 65.4301 22.5766 65.4301 22.3907C65.4301 22.2504 65.4138 22.1199 65.3778 21.9959C65.3419 21.8753 65.2864 21.7675 65.2146 21.6729C65.1428 21.5783 65.0515 21.5064 64.9406 21.451C64.8296 21.3988 64.6991 21.3728 64.549 21.3728C64.3499 21.3728 64.1836 21.4184 64.053 21.5131C63.9192 21.6077 63.8213 21.7284 63.7593 21.8818C63.6941 22.0351 63.6614 22.2048 63.6614 22.3908C63.6614 22.5736 63.6941 22.7432 63.7593 22.8966C63.8246 23.0499 63.9225 23.1739 64.0562 23.2653C64.1867 23.3599 64.3499 23.4056 64.5489 23.4056L64.549 23.4055ZM66.0924 23.5426V21.2356H66.3469L67.737 23.3076V21.2356H67.923V23.5426H67.6783L66.2785 21.4705V23.5426H66.0924H66.0924ZM70.2005 23.5686C70.0667 23.5686 69.9394 23.5522 69.8187 23.5164C69.6947 23.4805 69.587 23.4218 69.4957 23.3402C69.4043 23.2586 69.339 23.151 69.2998 23.0172H69.5022C69.5446 23.1119 69.6001 23.1901 69.6751 23.2455C69.7502 23.301 69.8318 23.3435 69.9264 23.3663C70.0177 23.3924 70.1091 23.4055 70.2004 23.4055C70.3016 23.4055 70.3994 23.3892 70.4941 23.3565C70.5888 23.3272 70.6637 23.2782 70.7225 23.2129C70.7813 23.1476 70.8106 23.0629 70.8106 22.9552C70.8106 22.8703 70.7943 22.8018 70.7617 22.7496C70.7258 22.6975 70.6801 22.655 70.6247 22.6224C70.5659 22.593 70.4974 22.5669 70.4224 22.544C70.3669 22.5277 70.3081 22.5115 70.2494 22.4952C70.1907 22.4821 70.1352 22.4691 70.0797 22.4527C70.0242 22.4364 69.9688 22.4201 69.9199 22.4038C69.8514 22.3842 69.7861 22.3614 69.7208 22.332C69.6523 22.3026 69.5936 22.2667 69.5446 22.2243C69.4925 22.1819 69.45 22.1264 69.4207 22.0644C69.3881 22.0024 69.3718 21.9241 69.3718 21.8328C69.3718 21.7381 69.3849 21.6566 69.4142 21.5881C69.4436 21.5195 69.4827 21.4608 69.5349 21.4119C69.5872 21.363 69.6459 21.3238 69.7144 21.2944C69.783 21.265 69.8547 21.2454 69.933 21.2291C70.008 21.216 70.0864 21.2095 70.168 21.2095C70.292 21.2095 70.4095 21.2258 70.5171 21.2617C70.6248 21.2976 70.7161 21.3531 70.7911 21.4314C70.8662 21.5096 70.9151 21.6141 70.9348 21.7479H70.7455C70.7226 21.6533 70.6835 21.5814 70.6248 21.526C70.5628 21.4706 70.4942 21.4314 70.4126 21.4086C70.3311 21.3857 70.2495 21.3727 70.1646 21.3727C70.0962 21.3727 70.0276 21.3792 69.9591 21.3923C69.8906 21.4086 69.8253 21.4314 69.7666 21.464C69.7078 21.4966 69.6589 21.5391 69.623 21.5946C69.5872 21.65 69.5676 21.7218 69.5676 21.8066C69.5676 21.8914 69.5872 21.96 69.623 22.0154C69.6589 22.071 69.7046 22.1134 69.7633 22.146C69.8188 22.1786 69.884 22.208 69.9559 22.2308C70.0506 22.2602 70.1516 22.2862 70.2528 22.3091C70.3539 22.332 70.4518 22.3613 70.5432 22.3907C70.6085 22.4103 70.6705 22.4363 70.7259 22.4657C70.7814 22.4983 70.8303 22.5375 70.8727 22.5799C70.9151 22.6224 70.9478 22.6713 70.9705 22.7268C70.9934 22.7822 71.0065 22.8475 71.0065 22.916C71.0065 23.0367 70.9837 23.1379 70.9412 23.2194C70.8955 23.301 70.8336 23.3695 70.7585 23.4218C70.6835 23.4739 70.5954 23.5098 70.5007 23.5327C70.4061 23.5588 70.305 23.5686 70.2005 23.5686H70.2005Z" fill="#212124"/>
<path d="M72.0208 23.5425V22.6745L71.2018 21.2356H71.4237L72.1154 22.4853L72.8072 21.2356H73.0193L72.2067 22.6713V23.5425H72.0208Z" fill="#212124"/>
<path d="M74.1123 23.5686C73.9786 23.5686 73.8513 23.5522 73.7306 23.5164C73.6066 23.4805 73.4989 23.4218 73.4075 23.3402C73.3161 23.2586 73.2509 23.151 73.2117 23.0172H73.414C73.4564 23.1119 73.5119 23.1901 73.587 23.2455C73.662 23.301 73.7436 23.3435 73.8382 23.3663C73.9296 23.3924 74.0209 23.4055 74.1123 23.4055C74.2135 23.4055 74.3113 23.3892 74.4059 23.3565C74.5006 23.3272 74.5756 23.2782 74.6343 23.2129C74.6931 23.1476 74.7225 23.0629 74.7225 22.9552C74.7225 22.8703 74.7062 22.8018 74.6735 22.7496C74.6376 22.6975 74.5919 22.655 74.5365 22.6224C74.4778 22.593 74.4092 22.5669 74.3342 22.544C74.2787 22.5277 74.22 22.5115 74.1612 22.4952C74.1025 22.4821 74.047 22.4691 73.9916 22.4527C73.9361 22.4364 73.8806 22.4201 73.8317 22.4038C73.7632 22.3842 73.698 22.3614 73.6327 22.332C73.5641 22.3026 73.5054 22.2667 73.4565 22.2243C73.4043 22.1819 73.3618 22.1264 73.3325 22.0644C73.2999 22.0024 73.2837 21.9241 73.2837 21.8328C73.2837 21.7381 73.2967 21.6566 73.3261 21.5881C73.3554 21.5195 73.3945 21.4608 73.4468 21.4119C73.499 21.363 73.5578 21.3238 73.6262 21.2944C73.6948 21.265 73.7666 21.2454 73.8449 21.2291C73.9199 21.216 73.9982 21.2095 74.0798 21.2095C74.2038 21.2095 74.3213 21.2258 74.429 21.2617C74.5366 21.2976 74.628 21.3531 74.703 21.4314C74.7781 21.5096 74.827 21.6141 74.8466 21.7479H74.6574C74.6344 21.6533 74.5953 21.5814 74.5366 21.526C74.4747 21.4706 74.4061 21.4314 74.3245 21.4086C74.243 21.3857 74.1613 21.3727 74.0765 21.3727C74.008 21.3727 73.9395 21.3792 73.871 21.3923C73.8024 21.4086 73.7372 21.4314 73.6785 21.464C73.6197 21.4966 73.5708 21.5391 73.5348 21.5946C73.499 21.65 73.4794 21.7218 73.4794 21.8066C73.4794 21.8914 73.499 21.96 73.5348 22.0154C73.5708 22.071 73.6164 22.1134 73.6751 22.146C73.7307 22.1786 73.7959 22.208 73.8677 22.2308C73.9624 22.2602 74.0635 22.2862 74.1647 22.3091C74.2658 22.332 74.3637 22.3613 74.455 22.3907C74.5203 22.4103 74.5823 22.4363 74.6377 22.4657C74.6932 22.4983 74.7421 22.5375 74.7846 22.5799C74.827 22.6224 74.8596 22.6713 74.8824 22.7268C74.9053 22.7822 74.9184 22.8475 74.9184 22.916C74.9184 23.0367 74.8956 23.1379 74.853 23.2194C74.8074 23.301 74.7454 23.3695 74.6704 23.4218C74.5953 23.4739 74.5072 23.5098 74.4126 23.5327C74.3179 23.5588 74.2168 23.5686 74.1124 23.5686H74.1123Z" fill="#212124"/>
<path d="M75.9197 23.5425V21.4053H75.1465V21.2357H76.8791V21.4053H76.1058V23.5425H75.9198H75.9197ZM77.2348 23.5425V21.2356H78.7423V21.4053H77.4208V22.3123H78.6085V22.482H77.4208V23.3728H78.7423V23.5424H77.2348V23.5425ZM79.2089 23.5425V21.2356H79.483L80.2955 22.6419L81.0949 21.2356H81.3625V23.5425H81.1765V21.4444L80.3379 22.916H80.2465L79.3949 21.4444V23.5425H79.2089H79.2089ZM82.759 23.5686C82.6253 23.5686 82.498 23.5522 82.3773 23.5164C82.2533 23.4805 82.1456 23.4218 82.0542 23.3402C81.9628 23.2586 81.8976 23.151 81.8584 23.0172H82.0607C82.1031 23.1119 82.1587 23.1901 82.2337 23.2455C82.3087 23.301 82.3903 23.3435 82.4849 23.3663C82.5763 23.3924 82.6676 23.4055 82.759 23.4055C82.8602 23.4055 82.958 23.3892 83.0526 23.3565C83.1473 23.3272 83.2223 23.2782 83.281 23.2129C83.3398 23.1476 83.3692 23.0628 83.3692 22.9552C83.3692 22.8703 83.3529 22.8018 83.3202 22.7496C83.2843 22.6975 83.2386 22.655 83.1832 22.6224C83.1245 22.593 83.0559 22.5669 82.9809 22.544C82.9254 22.5277 82.8667 22.5115 82.8079 22.4952C82.7492 22.4821 82.6937 22.4691 82.6383 22.4527C82.5828 22.4364 82.5273 22.4201 82.4784 22.4038C82.41 22.3842 82.3446 22.3614 82.2794 22.332C82.2109 22.3026 82.1521 22.2667 82.1032 22.2243C82.051 22.1819 82.0085 22.1264 81.9792 22.0644C81.9466 22.0024 81.9304 21.9241 81.9304 21.8328C81.9304 21.7381 81.9434 21.6566 81.9728 21.5881C82.0021 21.5195 82.0412 21.4608 82.0935 21.4119C82.1458 21.363 82.2045 21.3238 82.2729 21.2944C82.3415 21.265 82.4133 21.2454 82.4916 21.2291C82.5666 21.216 82.6449 21.2095 82.7265 21.2095C82.8505 21.2095 82.968 21.2258 83.0757 21.2617C83.1833 21.2976 83.2747 21.3531 83.3497 21.4314C83.4248 21.5096 83.4737 21.6141 83.4933 21.7479H83.3041C83.2811 21.6533 83.242 21.5814 83.1833 21.526C83.1214 21.4706 83.0528 21.4314 82.9712 21.4086C82.8897 21.3857 82.8081 21.3727 82.7232 21.3727C82.6547 21.3727 82.5862 21.3792 82.5177 21.3923C82.4492 21.4086 82.3839 21.4314 82.3252 21.464C82.2664 21.4966 82.2175 21.5391 82.1815 21.5946C82.1457 21.65 82.1261 21.7218 82.1261 21.8066C82.1261 21.8914 82.1458 21.96 82.1815 22.0154C82.2175 22.071 82.2631 22.1134 82.3219 22.146C82.3774 22.1786 82.4426 22.208 82.5144 22.2308C82.6091 22.2602 82.7102 22.2862 82.8114 22.3092C82.9125 22.332 83.0104 22.3613 83.1017 22.3907C83.167 22.4103 83.229 22.4363 83.2844 22.4657C83.3399 22.4983 83.3888 22.5375 83.4313 22.5799C83.4737 22.6224 83.5063 22.6713 83.5291 22.7268C83.552 22.7822 83.5651 22.8475 83.5651 22.916C83.5651 23.0367 83.5423 23.1379 83.4997 23.2194C83.4541 23.301 83.3921 23.3695 83.3171 23.4218C83.242 23.4739 83.1539 23.5098 83.0593 23.5327C82.9646 23.5588 82.8635 23.5686 82.7591 23.5686H82.759Z" fill="#212124"/>
<path d="M40.4893 10.3913C40.4893 11.7583 40.0569 12.8044 39.206 13.5158C38.3552 14.2411 37.1277 14.6038 35.5515 14.6038C33.9614 14.6038 32.7339 14.2411 31.883 13.5158C31.0182 12.8044 30.5858 11.7583 30.5858 10.3913V4.70027H32.8594V10.5726C32.8594 11.1027 32.957 11.5072 33.1384 11.7862C33.3197 12.0791 33.6127 12.2744 33.9893 12.372C34.3658 12.4837 34.8959 12.5394 35.5515 12.5394C36.2071 12.5394 36.7371 12.4837 37.1137 12.372C37.4903 12.2604 37.7833 12.0651 37.9646 11.7722C38.1459 11.4933 38.2296 11.0887 38.2296 10.5726V4.70027H40.4892V10.3913H40.4893ZM41.926 12.3023L47.4497 6.69493H42.0794V4.70027H50.5045V6.93207L44.953 12.4697H50.6439V14.4644H41.926V12.3023ZM52.2062 4.70027H54.5357V14.4643H52.2062V4.70027ZM56.7256 4.70027H59.7524L63.6441 10.1263L64.5647 11.4375H64.6205L64.6065 10.1542V4.70027H66.8663V14.4643H63.9649L59.9616 8.82903L59.0271 7.48998H58.9713L58.9853 8.82903V14.4643H56.7256V4.70027ZM71.3158 6.77858V8.75934H75.9607V10.7679H71.3158V14.4643H69.0422V4.70027H76.421V6.77858H71.3158ZM83.2559 14.6038C82.154 14.6038 81.1636 14.3945 80.3128 13.9901C79.4619 13.5856 78.7924 13.0137 78.3181 12.2604C77.8299 11.5073 77.5928 10.6284 77.5928 9.61022C77.5928 8.59195 77.8299 7.69919 78.3181 6.93207C78.7924 6.16484 79.4619 5.57901 80.3268 5.17459C81.1776 4.77006 82.154 4.56084 83.2559 4.56084C84.3579 4.56084 85.3482 4.77011 86.1991 5.17459C87.05 5.57906 87.7055 6.16489 88.1798 6.93207C88.654 7.69925 88.8912 8.59195 88.8912 9.61022C88.8912 10.6284 88.654 11.5073 88.1798 12.2604C87.6916 13.0137 87.036 13.5856 86.1851 13.9901C85.3343 14.3946 84.3579 14.6038 83.2559 14.6038ZM83.2559 12.5394C84.3997 12.5394 85.2366 12.3023 85.7667 11.828C86.2828 11.3677 86.5478 10.6145 86.5478 9.58235C86.5478 8.82908 86.4362 8.2432 86.1991 7.81086C85.9619 7.37847 85.6133 7.0716 85.139 6.89025C84.6647 6.70895 84.037 6.62514 83.2559 6.62514C82.4748 6.62514 81.8471 6.70889 81.3729 6.89025C80.8846 7.07155 80.536 7.37847 80.2988 7.81086C80.0617 8.2432 79.9502 8.82908 79.9502 9.58235C79.9502 10.3496 80.0617 10.9493 80.2988 11.3817C80.536 11.8142 80.8846 12.107 81.359 12.2745C81.8332 12.4558 82.4609 12.5395 83.256 12.5395L83.2559 12.5394ZM95.5168 14.6038C94.4009 14.6038 93.4105 14.3945 92.5597 13.9901C91.6948 13.5856 91.0253 13.0137 90.551 12.2604C90.0628 11.5073 89.8257 10.6284 89.8257 9.61022C89.8257 8.57799 90.0489 7.68534 90.5092 6.91811C90.9695 6.16484 91.6251 5.57901 92.4759 5.17453C93.3268 4.77001 94.345 4.56079 95.5167 4.56079C96.9813 4.56079 98.1531 4.90943 99.0458 5.59297C99.9245 6.29041 100.469 7.32253 100.678 8.67559L98.4041 9.10803L98.3762 9.09413C98.2646 8.42445 98.1252 7.92242 97.9438 7.57362C97.7625 7.22498 97.4975 6.98774 97.1348 6.83436C96.7582 6.69488 96.2282 6.62509 95.5167 6.62509C94.6659 6.62509 94.0103 6.70884 93.5361 6.89019C93.0479 7.07149 92.7131 7.37842 92.5038 7.81081C92.2946 8.24315 92.1831 8.82903 92.1831 9.5823C92.1831 10.3495 92.2947 10.9353 92.5038 11.3676C92.7132 11.8001 93.0618 12.0931 93.55 12.2744C94.0243 12.4557 94.6798 12.5394 95.5168 12.5394C96.2282 12.5394 96.7582 12.4557 97.1348 12.3022C97.5115 12.1488 97.7765 11.9116 97.9578 11.563C98.1391 11.2143 98.2787 10.7121 98.3762 10.0565L98.4042 10.0426L100.678 10.4749C100.469 11.8419 99.9245 12.8741 99.0459 13.5576C98.1531 14.2551 96.9814 14.6037 95.5168 14.6037V14.6038ZM107.485 14.6038C106.383 14.6038 105.392 14.3945 104.542 13.9901C103.691 13.5856 103.021 13.0137 102.547 12.2604C102.059 11.5073 101.822 10.6284 101.822 9.61022C101.822 8.59195 102.059 7.69919 102.547 6.93207C103.021 6.16484 103.691 5.57901 104.556 5.17459C105.406 4.77006 106.383 4.56084 107.485 4.56084C108.587 4.56084 109.577 4.77011 110.428 5.17459C111.279 5.57906 111.934 6.16489 112.409 6.93207C112.883 7.69925 113.12 8.59195 113.12 9.61022C113.12 10.6284 112.883 11.5073 112.409 12.2604C111.92 13.0137 111.265 13.5856 110.414 13.9901C109.563 14.3946 108.587 14.6038 107.485 14.6038ZM107.485 12.5394C108.629 12.5394 109.465 12.3023 109.996 11.828C110.512 11.3677 110.777 10.6145 110.777 9.58235C110.777 8.82908 110.665 8.2432 110.428 7.81086C110.191 7.37847 109.842 7.0716 109.368 6.89025C108.894 6.70895 108.266 6.62514 107.485 6.62514C106.704 6.62514 106.076 6.70889 105.602 6.89025C105.114 7.07155 104.765 7.37847 104.528 7.81086C104.29 8.2432 104.179 8.82908 104.179 9.58235C104.179 10.3496 104.291 10.9493 104.528 11.3817C104.765 11.8142 105.114 12.107 105.588 12.2745C106.062 12.4558 106.69 12.5395 107.485 12.5395L107.485 12.5394ZM114.682 4.70027H118.532L120.541 10.4192L121.154 12.4139L121.768 10.4192L123.763 4.70027H127.599V14.4643H125.423V8.77324L125.451 6.80644H125.395L124.683 8.77324L122.563 14.4643H119.746L117.612 8.77324L116.914 6.80644H116.858L116.872 8.77324V14.4643H114.682V4.70027H114.682Z" fill="#212124"/>
<path fill-rule="evenodd" clip-rule="evenodd" d="M25.6255 0.00840733H3.366C1.51465 0.00840733 0 1.523 0 3.37441V4.12267C0.608895 4.21575 1.28503 4.39545 2.01752 4.65522C4.32401 5.47355 7.19577 7.09086 10.2792 9.32378C12.7851 7.45687 15.0911 6.12123 16.9616 5.45826C18.7887 4.81058 20.2069 4.80306 21.0001 5.56486C21.8988 6.4273 21.8627 8.15186 21.0612 10.4106C20.2425 12.7172 18.6253 15.5889 16.3925 18.6722C18.2597 21.1782 19.5949 23.4844 20.2578 25.355C20.2916 25.4491 20.3229 25.5418 20.3528 25.6338H22.2595C24.1108 25.6338 25.6255 24.1195 25.6255 22.2681V0.00830078L25.6255 0.00840733ZM0 14.1411V22.2678C0 23.5271 0.700744 24.6302 1.73148 25.207C2.51704 25.2301 3.46765 25.0374 4.54868 24.6486C6.75246 23.857 9.49427 22.2535 12.4926 20.0083C12.5163 19.9902 12.5505 19.9953 12.5688 20.0191C12.5854 20.0412 12.5824 20.0725 12.5628 20.0914C11.7182 20.8968 10.8766 21.6589 10.0464 22.3732C9.20104 23.1003 8.36684 23.7783 7.55219 24.4018L7.55181 24.4022L7.07627 24.7615L7.07606 24.7618L7.07547 24.7621L7.0751 24.7624C6.66626 25.0674 6.26258 25.3581 5.86455 25.6336H16.2553C17.0247 24.7477 16.9811 23.1859 16.256 21.1674C15.4642 18.9637 13.8605 16.222 11.6154 13.2234C11.5973 13.1996 11.6022 13.1651 11.6261 13.147C11.6484 13.1305 11.6797 13.1335 11.6983 13.1531H11.6986C12.5039 13.9978 13.2664 14.8395 13.9808 15.6698C14.6873 16.4914 15.3475 17.3025 15.9568 18.0956C17.0117 16.0384 17.6922 14.2137 17.9352 12.7403C18.1698 11.3161 17.9959 10.2227 17.356 9.56895C16.4942 8.68883 14.8834 8.70231 12.7743 9.46027C10.5705 10.2521 7.82906 11.8553 4.83051 14.1006C4.8067 14.1185 4.7726 14.1138 4.75411 14.0897C4.73771 14.0676 4.74069 14.0362 4.7604 14.0176H4.76024C5.60462 13.2126 6.4458 12.4505 7.27574 11.7367C8.09736 11.0296 8.9094 10.3693 9.70263 9.75979C7.64547 8.70481 5.82081 8.02405 4.34751 7.78105C2.92301 7.5461 1.82972 7.7201 1.17602 8.36017C0.295577 9.22207 0.309482 10.8329 1.06734 12.9416C1.85892 15.1454 3.46248 17.8871 5.70765 20.8852C5.72582 20.9091 5.72055 20.9435 5.69652 20.9615C5.67462 20.9783 5.6433 20.9753 5.62444 20.9554V20.9558C4.81938 20.1113 4.05758 19.2702 3.34357 18.4402C2.61629 17.5946 1.93793 16.7601 1.31433 15.9451L1.31401 15.9448L0.954552 15.4693L0.954126 15.469L0.953966 15.4683L0.953487 15.468C0.618272 15.0189 0.300479 14.5761 0.000106553 14.1411L0 14.1411Z" fill="#212124"/>
</g>
<defs>
<clipPath id="clip0_36_173748">
<rect width="127.599" height="25.6255" fill="white" transform="translate(0 0.00830078)"/>
</clipPath>
</defs>
</svg>
